<?xml version="1.0" encoding="iso-8859-1"?>
<!-- Generator: Adobe Illustrator 19.0.0, SVG Export Plug-In . SVG Version: 6.00 Build 0)  -->
<svg version="1.1" id="Layer_1" xmlns="http://www.w3.org/2000/svg" xmlns:xlink="http://www.w3.org/1999/xlink" x="0px" y="0px"
	 viewBox="0 0 512 512" style="enable-background:new 0 0 512 512;" xml:space="preserve">
<path style="fill:#FFDB2D;" d="M472.187,488.107H39.813C17.86,488.107,0,470.247,0,448.294V162.702
	c0-9.425,7.641-17.067,17.067-17.067h477.867c9.425,0,17.067,7.641,17.067,17.067v285.591
	C512,470.247,494.14,488.107,472.187,488.107z"/>
<path style="fill:#FF9900;" d="M494.933,145.636H256v342.471h216.187c21.953,0,39.813-17.86,39.813-39.813V162.702
	C512,153.277,504.359,145.636,494.933,145.636z"/>
<path style="fill:#FF4F19;" d="M512,179.769H0V94.438c0-21.994,17.83-39.825,39.824-39.825h432.351
	c21.994,0,39.824,17.83,39.824,39.825V179.769z"/>
<path style="fill:#FC0023;" d="M512,94.438c0-21.994-17.83-39.825-39.824-39.825H256v125.156h256V94.438z"/>
<path style="fill:#816142;" d="M126.293,119.467c-9.425,0-17.067-7.641-17.067-17.067V40.96c0-9.425,7.641-17.067,17.067-17.067
	s17.067,7.641,17.067,17.067v61.44C143.36,111.825,135.719,119.467,126.293,119.467z"/>
<g>
	<path style="fill:#A7A9AC;" d="M129.707,310.613h-40.96c-9.425,0-17.067-7.641-17.067-17.067c0-9.425,7.641-17.067,17.067-17.067
		h40.96c9.425,0,17.067,7.641,17.067,17.067C146.773,302.972,139.132,310.613,129.707,310.613z"/>
	<path style="fill:#A7A9AC;" d="M227.556,310.613h-40.96c-9.425,0-17.067-7.641-17.067-17.067c0-9.425,7.641-17.067,17.067-17.067
		h40.96c9.425,0,17.067,7.641,17.067,17.067C244.622,302.972,236.981,310.613,227.556,310.613z"/>
	<path style="fill:#A7A9AC;" d="M129.707,391.396h-40.96c-9.425,0-17.067-7.641-17.067-17.067c0-9.425,7.641-17.067,17.067-17.067
		h40.96c9.425,0,17.067,7.641,17.067,17.067C146.773,383.754,139.132,391.396,129.707,391.396z"/>
	<path style="fill:#A7A9AC;" d="M227.556,391.396h-40.96c-9.425,0-17.067-7.641-17.067-17.067c0-9.425,7.641-17.067,17.067-17.067
		h40.96c9.425,0,17.067,7.641,17.067,17.067C244.622,383.754,236.981,391.396,227.556,391.396z"/>
</g>
<path style="fill:#543F29;" d="M385.707,119.467c-9.425,0-17.067-7.641-17.067-17.067V40.96c0-9.425,7.641-17.067,17.067-17.067
	c9.425,0,17.067,7.641,17.067,17.067v61.44C402.773,111.825,395.132,119.467,385.707,119.467z"/>
<g>
	<path style="fill:#808285;" d="M325.404,310.613h-40.96c-9.425,0-17.067-7.641-17.067-17.067c0-9.425,7.641-17.067,17.067-17.067
		h40.96c9.425,0,17.067,7.641,17.067,17.067C342.471,302.972,334.83,310.613,325.404,310.613z"/>
	<path style="fill:#808285;" d="M423.253,310.613h-40.96c-9.425,0-17.067-7.641-17.067-17.067c0-9.425,7.641-17.067,17.067-17.067
		h40.96c9.425,0,17.067,7.641,17.067,17.067C440.32,302.972,432.679,310.613,423.253,310.613z"/>
	<path style="fill:#808285;" d="M325.404,391.396h-40.96c-9.425,0-17.067-7.641-17.067-17.067c0-9.425,7.641-17.067,17.067-17.067
		h40.96c9.425,0,17.067,7.641,17.067,17.067C342.471,383.754,334.83,391.396,325.404,391.396z"/>
	<path style="fill:#808285;" d="M423.253,391.396h-40.96c-9.425,0-17.067-7.641-17.067-17.067c0-9.425,7.641-17.067,17.067-17.067
		h40.96c9.425,0,17.067,7.641,17.067,17.067C440.32,383.754,432.679,391.396,423.253,391.396z"/>
</g>
<g>
</g>
<g>
</g>
<g>
</g>
<g>
</g>
<g>
</g>
<g>
</g>
<g>
</g>
<g>
</g>
<g>
</g>
<g>
</g>
<g>
</g>
<g>
</g>
<g>
</g>
<g>
</g>
<g>
</g>
</svg>
