<?xml version="1.0" encoding="iso-8859-1"?>
<!-- Generator: Adobe Illustrator 19.0.0, SVG Export Plug-In . SVG Version: 6.00 Build 0)  -->
<svg version="1.1" id="Layer_1" xmlns="http://www.w3.org/2000/svg" xmlns:xlink="http://www.w3.org/1999/xlink" x="0px" y="0px"
	 viewBox="0 0 512 512" style="enable-background:new 0 0 512 512;" xml:space="preserve">
<path style="fill:#FF9F19;" d="M116.87,0H16.696C7.456,0,0,7.457,0,16.696v478.609c0,4.341,1.891,8.57,5.009,11.687l72.904-59.548
	l55.652-69.009V16.696C133.565,7.457,126.109,0,116.87,0z"/>
<path style="fill:#F28618;" d="M512,395.13v100.174c0,9.238-7.456,16.696-16.696,16.696H16.696c-4.562,0-8.682-2.003-11.687-5.009
	l128.557-128.557h361.739C504.544,378.435,512,385.892,512,395.13z"/>
<g>
	<path style="fill:#99522E;" d="M200.348,461.913V512h-33.391v-50.087c0-9.238,7.456-16.696,16.696-16.696
		C192.892,445.217,200.348,452.675,200.348,461.913z"/>
	<path style="fill:#99522E;" d="M300.522,461.913V512H267.13v-50.087c0-9.238,7.456-16.696,16.696-16.696
		C293.065,445.217,300.522,452.675,300.522,461.913z"/>
	<path style="fill:#99522E;" d="M400.696,461.913V512h-33.391v-50.087c0-9.238,7.456-16.696,16.696-16.696
		C393.239,445.217,400.696,452.675,400.696,461.913z"/>
</g>
<g>
	<path style="fill:#A6673A;" d="M66.783,128c0,9.238-7.456,16.696-16.696,16.696H0v-33.391h50.087
		C59.326,111.304,66.783,118.762,66.783,128z"/>
	<path style="fill:#A6673A;" d="M66.783,228.174c0,9.238-7.456,16.696-16.696,16.696H0v-33.391h50.087
		C59.326,211.478,66.783,218.936,66.783,228.174z"/>
	<path style="fill:#A6673A;" d="M66.783,328.348c0,9.238-7.456,16.696-16.696,16.696H0v-33.391h50.087
		C59.326,311.652,66.783,319.11,66.783,328.348z"/>
</g>
<g>
</g>
<g>
</g>
<g>
</g>
<g>
</g>
<g>
</g>
<g>
</g>
<g>
</g>
<g>
</g>
<g>
</g>
<g>
</g>
<g>
</g>
<g>
</g>
<g>
</g>
<g>
</g>
<g>
</g>
</svg>
