<?xml version="1.0" encoding="iso-8859-1"?>
<!-- Generator: Adobe Illustrator 19.0.0, SVG Export Plug-In . SVG Version: 6.00 Build 0)  -->
<svg version="1.1" id="Layer_1" xmlns="http://www.w3.org/2000/svg" xmlns:xlink="http://www.w3.org/1999/xlink" x="0px" y="0px"
	 viewBox="0 0 512 512" style="enable-background:new 0 0 512 512;" xml:space="preserve">
<path style="fill:#00D8E0;" d="M289.523,512h-68.276c-6.761,0-12.884-3.991-15.614-10.175l-20.703-46.916l-66.677-38.483
	l-51.01,5.542c-6.728,0.733-13.245-2.578-16.624-8.434L16.486,354.4c-3.38-5.857-2.982-13.157,1.014-18.612l30.24-41.276v-77.023
	L17.5,176.212c-3.996-5.455-4.394-12.754-1.014-18.612l34.132-59.135c3.38-5.856,9.899-9.166,16.624-8.434l51.01,5.542L184.93,57.09
	l20.703-46.916C208.363,3.991,214.487,0,221.248,0h68.276c6.761,0,12.884,3.991,15.614,10.175l20.703,46.916l66.677,38.483
	l51.01-5.542c6.725-0.732,13.244,2.577,16.624,8.434l34.132,59.135c3.38,5.857,2.982,13.157-1.014,18.612l-30.24,41.276v77.023
	l30.24,41.276c3.996,5.454,4.394,12.754,1.014,18.612l-34.132,59.135c-3.38,5.856-9.894,9.167-16.624,8.434l-51.01-5.542
	l-66.677,38.483l-20.703,46.916C302.408,508.009,296.284,512,289.523,512z"/>
<g>
	<path style="fill:#00A2A9;" d="M464.168,294.512v-77.023l30.323-41.276c4.007-5.455,4.407-12.755,1.016-18.612l-34.225-59.135
		c-3.389-5.857-9.926-9.166-16.67-8.434l-51.15,5.542l-66.86-38.483l-20.76-46.915C303.105,3.991,296.964,0,290.186,0h-34.231v512
		h34.231c6.779,0,12.919-3.991,15.656-10.175l20.76-46.916l66.86-38.483l51.15,5.542c6.748,0.733,13.281-2.578,16.67-8.434
		l34.225-59.135c3.389-5.857,2.991-13.157-1.016-18.612L464.168,294.512z"/>
	<path style="fill:#00A2A9;" d="M255.386,407.324c-83.44,0-151.324-67.884-151.324-151.324s67.884-151.324,151.324-151.324
		S406.71,172.56,406.71,256S338.826,407.324,255.386,407.324z"/>
</g>
<path style="fill:#007F85;" d="M406.71,256c0-83.25-67.576-151.009-150.756-151.318v302.634
	C339.133,407.009,406.71,339.25,406.71,256z"/>
<path style="fill:#00D8E0;" d="M293.501,347.022h-73.956c-9.425,0-17.067-7.641-17.067-17.067V293.85
	c0-28.834,22.245-53.266,51.036-54.835c31.159-1.698,57.053,23.165,57.053,53.963v36.978
	C310.568,339.381,302.926,347.022,293.501,347.022z"/>
<path style="fill:#B9F7F9;" d="M255.954,273.067c-29.8,0-54.044-24.245-54.044-54.044s24.245-54.044,54.044-54.044
	s54.044,24.245,54.044,54.044S285.754,273.067,255.954,273.067z"/>
<path style="fill:#00A2A9;" d="M255.954,238.933v108.089h37.547c9.425,0,17.067-7.641,17.067-17.067v-36.978
	C310.568,263.178,286.068,238.933,255.954,238.933z"/>
<path style="fill:#00D8E0;" d="M255.954,164.978v108.089c29.8,0,54.044-24.245,54.044-54.044S285.754,164.978,255.954,164.978z"/>
<g>
</g>
<g>
</g>
<g>
</g>
<g>
</g>
<g>
</g>
<g>
</g>
<g>
</g>
<g>
</g>
<g>
</g>
<g>
</g>
<g>
</g>
<g>
</g>
<g>
</g>
<g>
</g>
<g>
</g>
</svg>
